<?xml version="1.0" encoding="utf-8"?>
<!-- Generator: Adobe Illustrator 26.5.0, SVG Export Plug-In . SVG Version: 6.00 Build 0)  -->
<svg version="1.1" id="Layer_1" xmlns="http://www.w3.org/2000/svg" xmlns:xlink="http://www.w3.org/1999/xlink" x="0px" y="0px"
	 viewBox="0 0 612 792" style="enable-background:new 0 0 612 792;" xml:space="preserve">
<style type="text/css">
	.st0{fill:#ED1C24;stroke:#000000;stroke-width:5;stroke-miterlimit:10;}
	.st1{font-family:'MarkerFelt-Wide';}
	.st2{font-size:90px;}
	.st3{fill:none;stroke:#000000;stroke-width:9;stroke-miterlimit:10;}
	.st4{fill:#ED1C24;stroke:#000000;stroke-width:4;stroke-miterlimit:10;}
	.st5{fill:#FFF200;stroke:#000000;stroke-width:3;stroke-miterlimit:10;}
	.st6{font-size:26.7023px;}
	.st7{fill:none;}
	.st8{font-size:25px;}
</style>
<rect x="99.62" y="19.53" class="st0" width="418.52" height="88.92"/>
<text transform="matrix(0.9806 0 0 1 144.0033 100.8223)" class="st1 st2">MISSING</text>
<rect x="162.78" y="138.03" class="st3" width="292.2" height="292.2"/>
<polygon class="st4" points="15.78,19.53 71.06,19.53 51.76,90.73 33.33,90.73 "/>
<polygon class="st4" points="538.75,19.53 594.03,19.53 574.73,90.73 556.3,90.73 "/>
<polygon class="st4" points="538.75,354.35 594.03,354.35 574.73,425.55 556.3,425.55 "/>
<polygon class="st4" points="15.78,357.42 71.06,357.42 51.76,428.61 33.33,428.61 "/>
<polygon class="st4" points="15.78,667.11 71.06,667.11 51.76,738.3 33.33,738.3 "/>
<polygon class="st4" points="544.89,667.11 600.18,667.11 580.87,738.3 562.44,738.3 "/>
<circle class="st4" cx="43.42" cy="108.45" r="12.72"/>
<circle class="st4" cx="566.39" cy="108.45" r="12.72"/>
<circle class="st4" cx="43.42" cy="447.31" r="12.72"/>
<circle class="st4" cx="566.39" cy="444.32" r="12.72"/>
<circle class="st4" cx="43.42" cy="760.6" r="12.72"/>
<circle class="st4" cx="572.54" cy="760.6" r="12.72"/>
<rect x="99.62" y="460.03" class="st5" width="89.56" height="40.48"/>
<rect x="99.62" y="516.79" class="st5" width="138.83" height="40.48"/>
<rect x="99.62" y="630.32" class="st5" width="121.11" height="40.48"/>
<rect x="99.62" y="573.56" class="st5" width="121.11" height="40.48"/>
<text transform="matrix(1 0 0 1 93.0409 489.0195)" class="st1 st6">  Name:</text>
<text transform="matrix(1 0 0 1 91.7285 544.7976)" class="st1 st6">  Last Seen:</text>
<text transform="matrix(1 0 0 1 90.7099 601.3707)" class="st1 st6">  Contact:</text>
<text transform="matrix(1 0 0 1 92.0875 660.6564)" class="st1 st6">  Reward:</text>
<rect x="199.17" y="463.66" class="st7" width="1.75" height="5.26"/>
<text transform="matrix(1 0 0 1 256.2672 544.7979)" class="st1 st8">At my frat house </text>
<text transform="matrix(1 0 0 1 238.4493 601.3711)" class="st1 st8">(208)208-2080</text>
<text transform="matrix(1 0 0 1 231.4931 660.6562)" class="st1 st8">Crisp High Five </text>
<text transform="matrix(1 0 0 1 213.3988 489.0195)" class="st1 st8">Terry</text>
</svg>
